<?xml version="1.0" standalone="no"?><!DOCTYPE svg PUBLIC "-//W3C//DTD SVG 1.1//EN" "http://www.w3.org/Graphics/SVG/1.1/DTD/svg11.dtd"><svg t="1490671025826" class="icon" style="" viewBox="0 0 1024 1024" version="1.1" xmlns="http://www.w3.org/2000/svg" p-id="2791" xmlns:xlink="http://www.w3.org/1999/xlink" width="32" height="32"><defs><style type="text/css"></style></defs><path d="M918.161487 819.268152 711.313441 615.716176c54.162574-58.852386 87.440491-136.671753 87.440491-222.329645 0-183.190229-150.910035-331.696518-337.068875-331.696518-186.154747 0-337.063759 148.505265-337.063759 331.696518 0 183.195346 150.909012 331.696518 337.063759 331.696518 80.433914 0 154.206104-27.814486 212.149794-74.078159l207.655434 204.347085c10.128685 9.961886 26.546609 9.961886 36.670178 0C928.289148 845.389066 928.289148 829.234131 918.161487 819.268152L918.161487 819.268152zM461.690174 674.057933c-157.51957 0-285.20874-125.662001-285.20874-280.671401 0-155.00633 127.690194-280.663214 285.20874-280.663214 157.51343 0 285.204647 125.657908 285.204647 280.663214C746.894821 548.395932 619.204627 674.057933 461.690174 674.057933L461.690174 674.057933zM461.690174 674.057933" p-id="2792" fill="#cdcdcd"></path></svg>