<?xml version="1.0" standalone="no"?><!DOCTYPE svg PUBLIC "-//W3C//DTD SVG 1.1//EN" "http://www.w3.org/Graphics/SVG/1.1/DTD/svg11.dtd"><svg t="1490710728645" class="icon" style="" viewBox="0 0 1024 1024" version="1.1" xmlns="http://www.w3.org/2000/svg" p-id="12750" xmlns:xlink="http://www.w3.org/1999/xlink" width="32" height="32"><defs><style type="text/css"></style></defs><path d="M287.80231 315.682799c15.636119-29.578666 60.089563-100.892875 28.101012-152.413272-43.24492-53.568033-28.101012-99.993388-28.101012-99.993388-77.996398 108.405989-26.343995 150.532435-9.897418 174.674275S287.80231 315.682799 287.80231 315.682799z" p-id="12751" fill="#515151"></path><path d="M519.753079 315.682799c15.635095-29.578666 60.08854-100.892875 28.099988-152.413272-43.24492-53.568033-28.099988-99.993388-28.099988-99.993388-77.997422 108.405989-26.346041 150.532435-9.898441 174.674275S519.753079 315.682799 519.753079 315.682799z" p-id="12752" fill="#515151"></path><path d="M751.702825 315.682799c15.635095-29.578666 60.08854-100.892875 28.099988-152.413272-43.24492-53.568033-28.099988-99.993388-28.099988-99.993388-77.997422 108.405989-26.345018 150.532435-9.898441 174.674275C758.251985 262.092253 751.702825 315.682799 751.702825 315.682799z" p-id="12753" fill="#515151"></path><path d="M63.27665 365.105419l0 179.786713c0 75.730799 61.392232 137.123031 137.123031 137.123031l623.200638 0c75.730799 0 137.123031-61.392232 137.123031-137.123031L960.72335 365.105419 63.27665 365.105419z" p-id="12754" fill="#515151"></path><path d="M885.819382 708.514699c-16.70445 8.676613 1.866511 107.980293-44.630477 146.43-31.147394 22.076808-75.276451 23.460318-96.635921 2.344395s-30.317493-74.051553-52.846602-106.787118-42.962487-15.871479-43.728944 2.548032 34.535561 85.446068 24.098861 117.117394-47.3801 34.331923-66.045205 29.40061-34.546817-28.838815-70.518077-48.399313-56.126298-31.604812-59.389622-57.545624c-3.2623-25.941835 10.453073-60.159148 16.274662-71.681576-51.456952 11.359722-70.316485 79.202876-65.053622 123.19481s-6.797823 54.758138-18.751063 60.09775c-11.955286 5.339612-31.024597 10.521634-46.200228-42.567491-15.176654-53.089126-40.082904-112.686479-55.109132-118.170376 3.393283 8.330736 6.839779 141.071969-76.535117 143.086859S122.87912 755.586784 122.87912 755.586784s-33.372062 34.8139-32.113395 101.345176c2.282996 110.534466 142.983505 103.693664 142.983505 103.693664l610.957803 0.097214c147.356093-51.735291 62.213947-225.257324 62.213947-225.257324C902.868687 725.873042 894.643352 707.267289 885.819382 708.514699z" p-id="12755" fill="#515151"></path></svg>