<?xml version="1.0" standalone="no"?><!DOCTYPE svg PUBLIC "-//W3C//DTD SVG 1.1//EN" "http://www.w3.org/Graphics/SVG/1.1/DTD/svg11.dtd"><svg t="1490710682690" class="icon" style="" viewBox="0 0 1024 1024" version="1.1" xmlns="http://www.w3.org/2000/svg" p-id="11813" xmlns:xlink="http://www.w3.org/1999/xlink" width="32" height="32"><defs><style type="text/css"></style></defs><path d="M893.452735 881.147478c101.466949-154.372903 70.787206-358.499977-66.556858-476.774731 4.938476-3.14155 9.346879-7.316639 12.871145-12.458753 13.891382-20.331048 8.67559-48.062646-11.642155-61.963237-20.331048-13.891382-48.062646-8.67559-61.954027 11.642155-3.51608 5.1503-5.812379 10.772344-6.940063 16.519232C599.167269 273.058003 397.833821 318.558289 290.814412 469.137797L893.452735 881.147478 893.452735 881.147478zM466.815915 545.607422l-84.068697-57.446363c109.407806-148.769278 285.22102-101.462856 285.22102-101.462856S502.023788 430.221462 466.815915 545.607422L466.815915 545.607422zM466.815915 545.607422" p-id="11814" fill="#515151"></path><path d="M954.811198 929.161005c0 29.132504-25.666566 52.752458-57.329706 52.752458L119.547747 981.913463c-31.659047 0-57.32152-23.619954-57.32152-52.752458l0 0c0-29.136597 25.666566-52.748365 57.32152-52.748365l777.933745 0C929.148725 876.41264 954.811198 900.024407 954.811198 929.161005L954.811198 929.161005 954.811198 929.161005zM954.811198 929.161005" p-id="11815" fill="#515151"></path><path d="M232.342696 334.26911c69.462025-26.14752 91.221608-46.612621 85.362156-89.811492-8.005324-58.975183-71.1382-88.680738-65.271586-142.120858 4.587482-41.928948 19.241226-46.612621 28.448936-60.250222-22.586414 10.232039-52.064796 33.55728-56.910151 66.500577-6.695492 45.480844 45.591361 70.861908 55.999408 141.566226C285.266046 286.113343 262.466784 309.258483 232.342696 334.26911L232.342696 334.26911zM232.342696 334.26911" p-id="11816" fill="#515151"></path><path d="M373.400339 334.26911c54.78986-17.822924 72.272024-32.66598 71.186296-65.951061-1.478677-45.290509-48.39215-69.910233-40.349987-110.527302 6.310729-31.881105 17.804505-35.003212 25.750477-45.13906-17.933441 7.119141-43.73099 28.65155-47.901986 49.033763-7.073092 34.630728 30.074969 55.516408 33.308617 109.825314C417.030022 299.126728 398.079414 316.100308 373.400339 334.26911L373.400339 334.26911zM373.400339 334.26911" p-id="11817" fill="#515151"></path><path d="M100.966553 334.26911c54.784744-17.822924 72.275093-32.66598 71.180156-65.951061-1.473561-45.290509-48.396243-69.910233-40.353057-110.527302 6.319939-31.881105 17.814738-35.003212 25.755594-45.13906-17.938558 7.119141-43.73099 28.65155-47.901986 49.033763-7.083326 34.630728 30.083156 55.516408 33.3035 109.825314C144.599306 299.126728 125.645628 316.100308 100.966553 334.26911L100.966553 334.26911zM100.966553 334.26911" p-id="11818" fill="#515151"></path><path d="M337.070922 695.241394c47.186695 9.289574 79.777975 43.23571 91.540879 78.830393-12.797467-28.813233-42.12747-52.697199-80.679507-61.769832-0.230244-0.051165-0.443092-0.11154-0.664126-0.166799-38.879496-8.947789-77.704756-0.720408-104.550171 19.102057l17.083074 13.748119c12.731976 8.496511-10.790764 38.82833-23.52274 30.343075l-21.061688-11.610432c-1.944282 4.001127-3.543709 8.162914-4.786003 12.505825-8.181333 28.592198 1.094938 57.876152 22.198581 80.244602l417.489486 0c25.107841-23.436782 41.364083-53.112662 44.626383-85.732593L463.851397 612.044554C405.356145 623.099331 360.28053 651.861398 337.070922 695.241394L337.070922 695.241394zM337.070922 695.241394" p-id="11819" fill="#515151"></path><path d="M241.655805 757.796102l2.771113-3.211135c7.641027-8.846482-2.018983-16.625656-13.904685-24.344454l-84.925205-64.773236c-8.504698-5.51562-19.038612-6.620791-27.145244-3.567245-3.215228 1.224898 7.622608 12.159948 5.446036 14.678304l-2.765997 3.196809c-2.00568 2.332115-16.936741-4.084015-17.458627-1.303692-1.473561 7.764847 2.702552 16.542768 11.461029 22.230304l96.691179 53.3163C223.717248 761.736854 234.009661 766.638491 241.655805 757.796102L241.655805 757.796102zM241.655805 757.796102" p-id="11820" fill="#515151"></path></svg>