<?xml version="1.0" standalone="no"?><!DOCTYPE svg PUBLIC "-//W3C//DTD SVG 1.1//EN" "http://www.w3.org/Graphics/SVG/1.1/DTD/svg11.dtd"><svg t="1490710740224" class="icon" style="" viewBox="0 0 1024 1024" version="1.1" xmlns="http://www.w3.org/2000/svg" p-id="12926" xmlns:xlink="http://www.w3.org/1999/xlink" width="32" height="32"><defs><style type="text/css"></style></defs><path d="M1017.6 409.6c0-14.2-3-28-8.8-41.6-9-30.4-24.6-49-46-59.4-27.8-24-65-45.4-109.8-63.4 85.2-60.8 174.8-72.2 152.4-119.4-21.8-45.8-175.2 6-234.2 76.4-3.8 4.4-7.4 9-10.8 13.6-73.4-18.2-158-28.6-248.4-28.6-196.6 0-367 49.4-450.6 121.6-21.4 10.4-37 29-46 59.4-5.8 13.4-8.8 27.4-8.8 41.6 0 3.6 0.2 7.2 0.6 10.8-0.4 7-0.6 14.2-0.6 21.8 0 261.2 226.4 473 505.6 473 279.2 0 505.6-211.8 505.6-473 0-7.6-0.2-15-0.6-21.8C1017.4 416.8 1017.6 413.2 1017.6 409.6zM512 569.8c-230 0-416.6-71.6-416.6-160.2 0-88.4 186.4-160.2 416.6-160.2 77.4 0 149.8 8.2 212 22.2-29.8 52.4-49.6 101.6-68.8 115.6-62.2 45.2-103.2 7-202 59-98.8 51.8-100.4 62-100.4 62s166.4 13 258.4 5.4c101.2-8.2 98.8-6 95.2-22.8-10.8-50.2 33-127.4 86.4-190.8 2-2.2 4-4.6 5.8-6.8 80 29.2 129.8 70.4 129.8 116.2C928.6 498.2 742 569.8 512 569.8z" p-id="12927" fill="#515151"></path></svg>