<?xml version="1.0" standalone="no"?><!DOCTYPE svg PUBLIC "-//W3C//DTD SVG 1.1//EN" "http://www.w3.org/Graphics/SVG/1.1/DTD/svg11.dtd"><svg t="1490710714067" class="icon" style="" viewBox="0 0 1024 1024" version="1.1" xmlns="http://www.w3.org/2000/svg" p-id="12353" xmlns:xlink="http://www.w3.org/1999/xlink" width="32" height="32"><defs><style type="text/css"></style></defs><path d="M265.843694 248.080122l0 147.5935-102.820784 1.14815c-54.428633 0.606821-98.468662 45.63741-97.860818 100.066043l1.654686 148.44489c0.603751 54.063313 45.023426 97.866958 98.954733 97.866958 0.36839 0 0.74292-0.00307 1.111311-0.00614l98.960873-1.102101 0 99.806123c0 54.434773 44.537356 98.970082 98.970082 98.970082l494.848365 0c54.434773 0 98.970082-44.534286 98.970082-98.970082L958.632223 248.080122 265.843694 248.080122zM165.771511 693.715645c-26.977421 0-49.170886-21.951965-49.472761-48.935526l-1.654686-148.44489c-0.304945-27.282367 21.647019-49.726541 48.929386-50.031487l98.963942-1.102101 2.76088 247.405763L165.771511 693.715645zM909.146159 841.897545c0 27.285436-22.199605 49.485041-49.485041 49.485041L364.812753 891.382587c-27.285436 0-49.485041-22.199605-49.485041-49.485041L315.327712 297.565163l593.817424 0L909.145136 841.897545z" p-id="12354" fill="#515151"></path><path d="M612.252285 223.331461c13.676487 0 24.742521-11.066033 24.742521-24.742521L636.994806 99.619882c0-13.675464-11.066033-24.742521-24.742521-24.742521s-24.742521 11.066033-24.742521 24.742521l0 98.970082C587.509764 212.265428 598.575798 223.331461 612.252285 223.331461z" p-id="12355" fill="#515151"></path><path d="M760.706385 223.331461c13.676487 0 24.742521-11.066033 24.742521-24.742521L785.448906 99.619882c0-13.675464-11.066033-24.742521-24.742521-24.742521s-24.742521 11.066033-24.742521 24.742521l0 98.970082C735.963864 212.265428 747.030921 223.331461 760.706385 223.331461z" p-id="12356" fill="#515151"></path><path d="M463.798185 223.331461c13.676487 0 24.742521-11.066033 24.742521-24.742521L488.540705 99.619882c0-13.675464-11.066033-24.742521-24.742521-24.742521s-24.742521 11.066033-24.742521 24.742521l0 98.970082C439.055664 212.265428 450.121697 223.331461 463.798185 223.331461z" p-id="12357" fill="#515151"></path></svg>