<?xml version="1.0" standalone="no"?><!DOCTYPE svg PUBLIC "-//W3C//DTD SVG 1.1//EN" "http://www.w3.org/Graphics/SVG/1.1/DTD/svg11.dtd"><svg t="1490710706540" class="icon" style="" viewBox="0 0 1024 1024" version="1.1" xmlns="http://www.w3.org/2000/svg" p-id="12180" xmlns:xlink="http://www.w3.org/1999/xlink" width="32" height="32"><defs><style type="text/css"></style></defs><path d="M677.376 315.392c-38.912 0-120.32 43.008-120.32 92.16-2.048 10.752 2.048 25.6 19.456 38.912 17.408 14.848 49.664 25.6 77.312 25.6 6.656 0 12.8 0 19.456-2.048 38.912-8.704 73.216-47.104 73.216-83.968-0.512-34.304-24.064-70.656-69.12-70.656z" fill="#515151" p-id="12181"></path><path d="M512 0c-282.624 0-512 229.376-512 512s229.376 512 512 512 512-229.376 512-512-229.376-512-512-512z m350.208 519.68c0 98.816-92.16 258.048-344.064 258.048-225.792 0-344.064-6.656-344.064-133.12v-32.256c62.464 57.856 188.928 57.856 344.064 57.856 182.784 0 290.304-71.168 344.064-154.624v4.096z m-344.064 107.008c-221.184 0-344.064 0-344.064-129.024 0-83.968 98.816-129.024 193.536-129.024 55.808 0 83.968-25.6 118.272-60.416 40.96-43.008 90.112-90.112 204.288-90.112 98.816 0 172.032 68.608 172.032 161.28 0 101.376-92.672 247.296-344.064 247.296z" fill="#515151" p-id="12182"></path></svg>