<?xml version="1.0" standalone="no"?><!DOCTYPE svg PUBLIC "-//W3C//DTD SVG 1.1//EN" "http://www.w3.org/Graphics/SVG/1.1/DTD/svg11.dtd"><svg t="1490709500935" class="icon" style="" viewBox="0 0 1024 1024" version="1.1" xmlns="http://www.w3.org/2000/svg" p-id="9949" xmlns:xlink="http://www.w3.org/1999/xlink" width="32" height="32"><defs><style type="text/css"></style></defs><path d="M406.365361 292.626905C394.445115 299.172153 383.597666 307.428854 374.153846 317.066183 364.710026 307.428854 353.862577 299.172151 341.942331 292.626903L374.153846 275.692308 406.365361 292.626905 406.365361 292.626905ZM458.524987 276.403629C463.157819 275.933261 467.858471 275.692308 472.615385 275.692308 472.615385 199.561976 534.331215 137.846154 610.461538 137.846154 677.515835 137.846154 733.387678 185.723975 745.756396 249.158977L883.86942 9.940185C889.238055 0.641449 901.350538-2.704902 910.769231 2.732979 920.253578 8.208771 923.415178 20.214182 917.977502 29.632492L774.481959 278.174088C838.095262 290.401621 886.153846 346.357695 886.153846 413.538462 886.153846 456.809421 866.216192 495.423687 835.026274 520.695867L835.026314 520.695867C890.57538 520.695869 925.538462 520.695869 925.538462 520.695869 925.538462 682.387549 756.477578 814.824737 542.17342 826.27382 532.728458 826.778411 530.761689 969.720767 514.768167 984.615385L630.019052 984.615385C640.98562 984.615385 649.846154 993.431932 649.846154 1004.307692 649.846154 1015.259278 640.969255 1024 630.019052 1024L393.980948 1024C383.01438 1024 374.153846 1015.183453 374.153846 1004.307692 374.153846 993.356107 383.030745 984.615385 393.980948 984.615385L509.25121 984.615385 509.25121 984.615385C493.496615 969.724235 493.847355 826.848205 485.560852 826.460845 269.489664 816.360369 98.461538 683.325572 98.461538 520.695865 98.461538 520.695865 133.42464 520.695865 188.973726 520.695867 157.783808 495.423685 137.846154 456.809419 137.846154 413.538462 137.846154 337.40813 199.561984 275.692308 275.692308 275.692308 280.449221 275.692308 285.149873 275.933261 289.782686 276.403627L299.239857 221.26411 224.325868 148.241018 327.854474 133.19742 374.153846 39.384615 420.453258 133.197443 523.981844 148.241094 449.067835 221.26413 458.524987 276.403629 458.524987 276.403629ZM374.153846 510.01074C377.858796 513.7916 381.779771 517.359968 385.896802 520.695867L385.896802 520.695867C377.995874 520.695867 370.162865 520.695867 362.41089 520.695867 366.527921 517.359968 370.448896 513.7916 374.153846 510.01074L374.153846 510.01074ZM610.461538 413.538462C610.461538 456.809421 590.523884 495.423687 559.333967 520.695867 594.210737 520.695867 628.632399 520.695867 661.58911 520.695867 630.399193 495.423687 610.461538 456.809421 610.461538 413.538462ZM512 787.692308C708.592108 787.692308 869.771362 683.952024 884.980519 552.115873 884.980519 552.71793 139.089979 552.71793 139.089979 552.71793 154.719586 684.267719 315.707234 787.692308 512 787.692308ZM374.153846 236.307692 327.854454 260.648726 336.696852 209.093595 299.239857 172.582048 351.00416 165.060248 374.153846 118.153846 397.303552 165.06026 449.067855 172.582085 411.610841 209.093604 420.453238 260.648728 374.153846 236.307692ZM748.307692 512C802.686503 512 846.769231 467.917271 846.769231 413.538462 846.769231 359.159652 802.686503 315.076923 748.307692 315.076923 693.928881 315.076923 649.846154 359.159652 649.846154 413.538462 649.846154 467.917271 693.928881 512 748.307692 512ZM568.573972 313.786837C597.024039 340.313702 604.716347 374.012751 604.716347 374.012751 604.716347 374.012751 608.926011 374.153846 610.461538 374.153846 612.245209 374.153846 615.86562 374.012751 615.778127 374.012753 615.690634 374.012755 623.435106 344.475963 649.896625 316.783653 676.358164 289.091346 708.923077 281.544472 708.923077 281.544472L708.923077 275.692308C708.923077 221.313499 664.84035 177.230769 610.461538 177.230769 556.082727 177.230769 512 221.313499 512 275.692308 512 275.692308 512 281.544472 512 281.544472 512 281.544472 543.356731 290.274259 568.573972 313.786837ZM472.615385 512C526.994196 512 571.076923 467.917271 571.076923 413.538462 571.076923 359.159652 526.994196 315.076923 472.615385 315.076923 418.236574 315.076923 374.153846 359.159652 374.153846 413.538462 374.153846 467.917271 418.236574 512 472.615385 512ZM275.692308 512C305.874688 512 332.885189 498.419484 350.94658 477.035642 350.59584 477.035644 333.30688 448.463492 333.30688 413.538462 333.30688 378.613431 350.59584 349.62831 350.59584 349.62831 332.536478 328.482745 305.679931 315.076923 275.692308 315.076923 221.313497 315.076923 177.230769 359.159652 177.230769 413.538462 177.230769 467.917271 221.313497 512 275.692308 512Z" p-id="9950" fill="#515151"></path></svg>